<svg width="32" height="32" viewBox="0 0 32 32" fill="none" xmlns="http://www.w3.org/2000/svg">
<rect width="32" height="32" rx="5.33333" fill="white"/>
<path d="M10.3342 24.396C8.91156 24.396 7.62089 24.11 6.46223 23.538C5.31823 22.9513 4.40889 22.086 3.73423 20.942C3.05956 19.798 2.72223 18.3973 2.72223 16.74C2.72223 15.4787 2.92756 14.3713 3.33823 13.418C3.74889 12.4647 4.30623 11.6653 5.01023 11.02C5.72889 10.3747 6.55023 9.89067 7.47423 9.568C8.41289 9.24533 9.40289 9.084 10.4442 9.084C11.2802 9.084 12.0502 9.17933 12.7542 9.37C13.4582 9.56067 14.1182 9.82467 14.7342 10.162L14.8222 12.868H14.6022L13.5022 11.108C13.3556 10.8293 13.1942 10.58 13.0182 10.36C12.8422 10.1253 12.6222 9.94933 12.3582 9.832C12.1382 9.72933 11.9182 9.656 11.6982 9.612C11.4929 9.55333 11.2289 9.524 10.9062 9.524C10.0556 9.524 9.27823 9.75133 8.57423 10.206C7.88489 10.6607 7.32756 11.416 6.90223 12.472C6.49156 13.5133 6.28623 14.9433 6.28623 16.762C6.28623 18.566 6.48423 19.996 6.88023 21.052C7.27623 22.0933 7.81156 22.8413 8.48623 23.296C9.17556 23.736 9.94556 23.956 10.7962 23.956C11.2656 23.956 11.6396 23.9267 11.9182 23.868C12.1969 23.7947 12.4756 23.692 12.7542 23.56C13.0329 23.4427 13.2456 23.274 13.3922 23.054C13.5389 22.8193 13.6709 22.57 13.7882 22.306L14.7562 20.15H14.9762L14.9102 23.296C14.2942 23.6187 13.6049 23.8827 12.8422 24.088C12.0796 24.2933 11.2436 24.396 10.3342 24.396ZM15.5852 24V23.78L16.1352 23.582C16.4285 23.4647 16.6558 23.3253 16.8172 23.164C16.9785 22.988 17.1105 22.746 17.2132 22.438L21.7452 9.436H23.6152L28.0812 22.526C28.1985 22.8487 28.3305 23.098 28.4772 23.274C28.6238 23.4353 28.8512 23.5747 29.1592 23.692L29.4232 23.78V24H23.8352V23.78L24.1652 23.67C24.4732 23.5527 24.6565 23.3913 24.7152 23.186C24.7885 22.966 24.7812 22.7093 24.6932 22.416L23.6592 19.248H18.7752L17.7192 22.35C17.6165 22.6727 17.5798 22.9293 17.6092 23.12C17.6532 23.3107 17.8292 23.4647 18.1372 23.582L18.6212 23.78V24H15.5852ZM18.9292 18.808H23.5272L21.3052 11.966L18.9292 18.808Z" fill="black"/>
</svg>
