<svg width="16" height="16" viewBox="0 0 16 16" fill="none" xmlns="http://www.w3.org/2000/svg">
<path d="M5.13071 11.828C4.41937 11.828 3.77404 11.685 3.19471 11.399C2.62271 11.1057 2.16804 10.673 1.83071 10.101C1.49337 9.529 1.32471 8.82866 1.32471 8C1.32471 7.36933 1.42737 6.81566 1.63271 6.339C1.83804 5.86233 2.11671 5.46266 2.46871 5.14C2.82804 4.81733 3.23871 4.57533 3.70071 4.414C4.17004 4.25266 4.66504 4.172 5.18571 4.172C5.60371 4.172 5.98871 4.21966 6.34071 4.315C6.69271 4.41033 7.02271 4.54233 7.33071 4.711L7.37471 6.064H7.26471L6.71471 5.184C6.64137 5.04466 6.56071 4.92 6.47271 4.81C6.38471 4.69266 6.27471 4.60466 6.14271 4.546C6.03271 4.49466 5.92271 4.458 5.81271 4.436C5.71004 4.40666 5.57804 4.392 5.41671 4.392C4.99137 4.392 4.60271 4.50566 4.25071 4.733C3.90604 4.96033 3.62737 5.338 3.41471 5.866C3.20937 6.38666 3.10671 7.10166 3.10671 8.011C3.10671 8.913 3.20571 9.628 3.40371 10.156C3.60171 10.6767 3.86937 11.0507 4.20671 11.278C4.55137 11.498 4.93637 11.608 5.36171 11.608C5.59637 11.608 5.78337 11.5933 5.92271 11.564C6.06204 11.5273 6.20137 11.476 6.34071 11.41C6.48004 11.3513 6.58637 11.267 6.65971 11.157C6.73304 11.0397 6.79904 10.915 6.85771 10.783L7.34171 9.705H7.45171L7.41871 11.278C7.11071 11.4393 6.76604 11.5713 6.38471 11.674C6.00337 11.7767 5.58537 11.828 5.13071 11.828Z" fill="black"/>
<path d="M7.75618 11.63V11.52L8.03118 11.421C8.17785 11.3623 8.29152 11.2927 8.37218 11.212C8.45285 11.124 8.51885 11.003 8.57018 10.849L10.8362 4.348H11.7712L14.0042 10.893C14.0629 11.0543 14.1289 11.179 14.2022 11.267C14.2755 11.3477 14.3892 11.4173 14.5432 11.476L14.6752 11.52V11.63H11.8812V11.52L12.0462 11.465C12.2002 11.4063 12.2919 11.3257 12.3212 11.223C12.3579 11.113 12.3542 10.9847 12.3102 10.838L11.7932 9.254H9.35118L8.82318 10.805C8.77185 10.9663 8.75352 11.0947 8.76818 11.19C8.79018 11.2853 8.87818 11.3623 9.03218 11.421L9.27418 11.52V11.63H7.75618ZM9.42818 9.034H11.7272L10.6162 5.613L9.42818 9.034Z" fill="black"/>
</svg>
